/* XPM */
static char *dummy[]={
"16 16 7 1",
"# c #000000",
"a c #008080",
". c #00ff00",
"b c #7b7b7b",
"e c #848400",
"d c #ff0000",
"c c #ffff00",
".........###....",
".........#a#....",
".........###....",
".....#####a#....",
"..b###cc##a#....",
"...de#####a#....",
"...de#cc##a#....",
"...d##cc##a#....",
".#dbb#cc##a#....",
".#d#.#cc##a#....",
"bbd#.#cc##a#....",
"#d...#cc##a#....",
"#d#..#######....",
"#d#..#cc##a#....",
"##b..#######....",
"................"};
