/* XPM */
static char *dummy[]={
"16 16 5 1",
"b c #000000",
"a c #000083",
"# c #00cccc",
". c #838100",
"c c #ffffff",
"................",
"......#a#.......",
".....#a####.....",
"....#a######....",
"...#a#bb###b....",
"..#a###b##bcb#..",
".#a##b###bcccb#.",
"#a######bcccb#..",
"a######bcccb#...",
".#####bcccb#....",
"..###bcccb#.....",
"...#bcccb#......",
"....#bcb#.......",
".....#b#........",
"......#.........",
"................"};
