/* XPM */
static char *calculat[]={
"16 16 6 1",
". c None",
"a c #000000",
"c c #00ffff",
"# c #7f7f7f",
"b c #bfbfbf",
"d c #ff0000",
"..#aaaaaaaaa#...",
"..abbbbbbbbba...",
"..abbbbbbbbba...",
"..abaaaaaaaba...",
"..abaaacacaba...",
"..abaaaaaaaba...",
"..abbbbbbbbba...",
"..abababababa...",
"..abbbbbbbbba...",
"..abababababa...",
"..abbbbbbbbba...",
"..abababababa...",
"..abbbbbbbbba...",
"..abababdddba...",
"..abbbbbbbbba...",
"..#aaaaaaaaa#..."};
