/* XPM */
static char *compmac[]={
"16 16 7 1",
". c None",
"# c #000000",
"b c #000080",
"d c #7f7f7f",
"e c #bfbfbf",
"c c #ff0000",
"a c #ffffff",
"....#########...",
"....#aaaaaaa#...",
"....#ab###ba#...",
"....#a#####a#...",
"....#a#####a#...",
"....#ab###ba#...",
"....#aaaaaaa#...",
"....#aaaaaaa#...",
"....#aca###a#...",
"....#aaaaaaa#...",
"....#ddddddd#...",
"....#eeeeeee#...",
"....#########...",
"................",
"................",
"................"};
