/* XPM */
static char *dummy[]={
"32 16 9 1",
"# c #000000",
"f c #00ff00",
"g c #00ffff",
"a c #7f7f7f",
". c #808000",
"d c #bfbfbf",
"c c #ff0000",
"e c #ff00ff",
"b c #ffffff",
"................................",
"######..........aaaaaa..........",
"#bbbb#.#########abbbbabaaaaaaaaa",
"#bbcb#.#bbbbbbb#ab.a.ababbbbbbba",
"#bbbb#.#b#####b#ab..bababaaaaa.a",
"#d##d#.#b#efe#b#abaa.abababbbaba",
"#bbbb#.#b#ffg#b#ab.bbababab..aba",
"#d##d#.#b#####b#abaa.ababaaaaaba",
"#bbbb#.#bbbbbbb#ab.bbabab.bbbbba",
"#dddd#.#########ab...abaaaaaaaaa",
"#dddd#....#b#...ab...ab.bbababbb",
"#dddd##########.ab...aaaaaaaaaa.",
"#dddd#bbbbbbbbb#ab...abbbbbbbbba",
"#ddd#b#b#b#b#bb#ab..a.a.a.a.a..a",
"####bbbbbbbbbb#.aaaa.b.b.b.b.ba.",
"...###########...bbaaaaaaaaaaa.b"};
