/* XPM */
static char *dummy[]={
"16 16 6 1",
"# c #000000",
"b c #0000ff",
"d c #00ffff",
". c #ff0000",
"c c #ffff00",
"a c #ffffff",
".....########...",
".....#aaaaaa##..",
".....#bbbbbb#a#.",
".....#aaaaaa#aa#",
".....#a###aa####",
"...###aaaaaaaaa#",
"###ac#aaaaaaaaa#",
"d#ac#######aa#a#",
"d#cacacacac#aaa#",
"d#acac#####aa#a#",
"d#cacacacac#aaa#",
"d#acac#####aa#a#",
"d##acacac#aaaaa#",
"##.######aa###a#",
".....#aaaaaaaaa#",
".....###########"};
