/* XPM */
static char *harddisk[]={
"16 16 6 1",
". c None",
"# c #000000",
"c c #7f7f7f",
"b c #bfbfbf",
"d c #ff0000",
"a c #ffffff",
"................",
"................",
"................",
"################",
"#aaaaaaaaaaaaaa#",
"#abbbbbbbbbbbbc#",
"#abbbbbbbbbbbbc#",
"#abb########bbc#",
"#abbbbbbbbbbbbc#",
"#abb########bbc#",
"#adbbbbbbbbbbbc#",
"#accccccccccccc#",
"################",
"................",
"................",
"................"};
