/* XPM */
static char *hourglas[]={
"14 16 9 1",
"# c None",
"c c #343434",
". c #3434c8",
"a c #3434ff",
"f c #c7c7c7",
"d c #c83434",
"b c #fcfcfc",
"g c #ffff34",
"e c #ffffff",
".............#",
".aaaaaaaaaaa.#",
"...bbbbbbb...#",
"##cbbbbdefc###",
"##cbbdgegfc###",
"###cdgdedc####",
"####cdedc#####",
"#####cbc######",
"####cbgfc#####",
"###cbbdefc####",
"##cbbbgeffc###",
"##cbbbdeefc###",
"...bbdgdbb...#",
".aaaaaaaaaaa.#",
".............#",
"##############"};
