/* XPM */
static char *library[]={
"16 16 8 1",
". c None",
"# c #000000",
"c c #0000ff",
"f c #00ffff",
"b c #7f7f7f",
"e c #808000",
"a c #ff0000",
"d c #ffff00",
".........###....",
".........#a#....",
".........###....",
".....#####a#....",
"..b###cc##a#.###",
"..#de#####a#.#f#",
"..#de#cc##a#.###",
".bbd##cc##a#.#f#",
".#dbb#cc##a#.#f#",
".#d#.#cc##a#.#f#",
"bbd#.#cc##a#.#f#",
"#dbb.#cc##a#.#f#",
"#d#..#######.#f#",
"#d#..#cc##a#.#f#",
"##b..#######.###",
"................"};
