/* XPM */
static char *monitor[]={
"16 16 8 1",
"# c None",
". c #000000",
"d c #00ff00",
"b c #7f7f7f",
"c c #bfbfbf",
"e c #ff0000",
"f c #ff00ff",
"a c #ffffff",
"...............#",
".aaaaaaaaaaaaa.#",
".abbbbbbbbbbba.#",
".ab.........ca.#",
".ab.ddddddd.ca.#",
".ab.deedeed.ca.#",
".ab.deedeed.ca.#",
".ab.dfffffd.ca.#",
".ab.ddddddd.ca.#",
".ab.........ca.#",
".abcccccccccba.#",
".aaaaaaaaaaeaa.#",
"...............#",
"#####.ccc.######",
"###.bbbbbbb.####",
"##...........###"};
