/* XPM */
static char *pobd[]={
"20 20 3 1",
". c None",
"# c #008080",
"a c #ffffff",
".....####a####......",
"...######a######....",
"..#####aaaaa#####...",
".####aaa#a#aaa####..",
"####aa###a###aa####a",
"aa#aa####a####aa#aa#",
"#aaa#####a#####aaa##",
"##a#aa###a###aa#a###",
"##a###aa#a#aa###a###",
"##a####aaaaa####a###",
"##a######a######a###",
"##a####aaaaa####a###",
"##a##aa##a##aa##a###",
"##a#aa###a###aa#a###",
"#aaa#####a#####aaa##",
"aa#aaa###a###aaa#aa#",
"#####aaa#a#aaa#####a",
"#######aaaaa#######.",
"..#######a#######...",
"....#####a#####....."};
