/* XPM */
static char *video[]={
"16 16 6 1",
". c None",
"# c #000000",
"d c #00ff00",
"b c #7f7f7f",
"a c #bfbfbf",
"c c #ff0000",
"..#.............",
".#a#............",
"#aa#............",
".##a#...........",
"...#a#..........",
".####a####....##",
"#aaa###aaa#..#a#",
"#bbbbbbbaa###aa#",
"#baaaaabaa#a#aa#",
"#b####abaa#b#ba#",
"#baaaaabaa###bb#",
"#bbbbbbbaa#..#a#",
"#bcbdbb###....##",
"#bbbbb#######...",
".#####bbbbbbb#..",
"......#######..."};
