/* XPM */
static char *watch[]={
"16 16 6 1",
". c None",
"# c #000000",
"b c #7f7f7f",
"d c #808000",
"a c #ffff00",
"c c #ffffff",
".....#aaa#......",
".....#####......",
".....#aaa#......",
"....#######.....",
"...##aabaa##....",
"...#aacbcaa#....",
"..##accbcca##...",
"..##acc#bba#d#..",
"..##accccca##...",
"...#aacccaa#....",
"...##aaaaa##....",
"....#######.....",
".....#aaa#......",
".....#####......",
".....#aaa#......",
".....#####......"};
